<mxfile host="app.diagrams.net" modified="2024-02-17T19:56:36.071Z" agent="Mozilla/5.0 (Windows NT 10.0; Win64; x64) AppleWebKit/537.36 (KHTML, like Gecko) Chrome/121.0.0.0 Safari/537.36" version="23.1.5" etag="Cwh3weXgcS9a48j08NCp" type="github">
  <diagram name="Seite-1" id="2GeeWm8-VFOCi3Yl_yty">
    <mxGraphModel>
      <root>
        <mxCell id="0" />
        <mxCell id="1" parent="0" />
      </root>
    </mxGraphModel>
  </diagram>
</mxfile>
